<?xml version="1.0" encoding="utf-8" standalone="no"?>
<!DOCTYPE svg PUBLIC "-//W3C//DTD SVG 1.1//EN"
  "http://www.w3.org/Graphics/SVG/1.1/DTD/svg11.dtd">
<!-- Created with matplotlib (https://matplotlib.org/) -->
<svg height="432pt" version="1.1" viewBox="0 0 1872 432" width="1872pt" xmlns="http://www.w3.org/2000/svg" xmlns:xlink="http://www.w3.org/1999/xlink">
 <metadata>
  <rdf:RDF xmlns:cc="http://creativecommons.org/ns#" xmlns:dc="http://purl.org/dc/elements/1.1/" xmlns:rdf="http://www.w3.org/1999/02/22-rdf-syntax-ns#">
   <cc:Work>
    <dc:type rdf:resource="http://purl.org/dc/dcmitype/StillImage"/>
    <dc:date>2021-05-13T12:41:19.735901</dc:date>
    <dc:format>image/svg+xml</dc:format>
    <dc:creator>
     <cc:Agent>
      <dc:title>Matplotlib v3.3.1, https://matplotlib.org/</dc:title>
     </cc:Agent>
    </dc:creator>
   </cc:Work>
  </rdf:RDF>
 </metadata>
 <defs>
  <style type="text/css">*{stroke-linecap:butt;stroke-linejoin:round;}</style>
 </defs>
 <g id="figure_1">
  <g id="patch_1">
   <path d="M 0 432 
L 1872 432 
L 1872 0 
L 0 0 
z
" style="fill:none;"/>
  </g>
  <g id="axes_1">
   <g id="patch_2">
    <path d="M 234 378 
L 660.705882 378 
L 660.705882 51.84 
L 234 51.84 
z
" style="fill:#ffffff;"/>
   </g>
   <g id="matplotlib.axis_1">
    <g id="xtick_1">
     <g id="line2d_1">
      <defs>
       <path d="M 0 0 
L 0 3.5 
" id="m53c22c4143" style="stroke:#000000;stroke-width:0.8;"/>
      </defs>
      <g>
       <use style="stroke:#000000;stroke-width:0.8;" x="262.453617" xlink:href="#m53c22c4143" y="378"/>
      </g>
     </g>
     <g id="text_1">
      <!-- −4 -->
      <g transform="translate(246.237211 401.716563)scale(0.22 -0.22)">
       <defs>
        <path d="M 10.59375 35.5 
L 73.1875 35.5 
L 73.1875 27.203125 
L 10.59375 27.203125 
z
" id="DejaVuSans-8722"/>
        <path d="M 37.796875 64.3125 
L 12.890625 25.390625 
L 37.796875 25.390625 
z
M 35.203125 72.90625 
L 47.609375 72.90625 
L 47.609375 25.390625 
L 58.015625 25.390625 
L 58.015625 17.1875 
L 47.609375 17.1875 
L 47.609375 0 
L 37.796875 0 
L 37.796875 17.1875 
L 4.890625 17.1875 
L 4.890625 26.703125 
z
" id="DejaVuSans-52"/>
       </defs>
       <use xlink:href="#DejaVuSans-8722"/>
       <use x="83.789062" xlink:href="#DejaVuSans-52"/>
      </g>
     </g>
    </g>
    <g id="xtick_2">
     <g id="line2d_2">
      <g>
       <use style="stroke:#000000;stroke-width:0.8;" x="344.677542" xlink:href="#m53c22c4143" y="378"/>
      </g>
     </g>
     <g id="text_2">
      <!-- −2 -->
      <g transform="translate(328.461136 401.716563)scale(0.22 -0.22)">
       <defs>
        <path d="M 19.1875 8.296875 
L 53.609375 8.296875 
L 53.609375 0 
L 7.328125 0 
L 7.328125 8.296875 
Q 12.9375 14.109375 22.625 23.890625 
Q 32.328125 33.6875 34.8125 36.53125 
Q 39.546875 41.84375 41.421875 45.53125 
Q 43.3125 49.21875 43.3125 52.78125 
Q 43.3125 58.59375 39.234375 62.25 
Q 35.15625 65.921875 28.609375 65.921875 
Q 23.96875 65.921875 18.8125 64.3125 
Q 13.671875 62.703125 7.8125 59.421875 
L 7.8125 69.390625 
Q 13.765625 71.78125 18.9375 73 
Q 24.125 74.21875 28.421875 74.21875 
Q 39.75 74.21875 46.484375 68.546875 
Q 53.21875 62.890625 53.21875 53.421875 
Q 53.21875 48.921875 51.53125 44.890625 
Q 49.859375 40.875 45.40625 35.40625 
Q 44.1875 33.984375 37.640625 27.21875 
Q 31.109375 20.453125 19.1875 8.296875 
z
" id="DejaVuSans-50"/>
       </defs>
       <use xlink:href="#DejaVuSans-8722"/>
       <use x="83.789062" xlink:href="#DejaVuSans-50"/>
      </g>
     </g>
    </g>
    <g id="xtick_3">
     <g id="line2d_3">
      <g>
       <use style="stroke:#000000;stroke-width:0.8;" x="426.901467" xlink:href="#m53c22c4143" y="378"/>
      </g>
     </g>
     <g id="text_3">
      <!-- 0 -->
      <g transform="translate(419.902717 401.716563)scale(0.22 -0.22)">
       <defs>
        <path d="M 31.78125 66.40625 
Q 24.171875 66.40625 20.328125 58.90625 
Q 16.5 51.421875 16.5 36.375 
Q 16.5 21.390625 20.328125 13.890625 
Q 24.171875 6.390625 31.78125 6.390625 
Q 39.453125 6.390625 43.28125 13.890625 
Q 47.125 21.390625 47.125 36.375 
Q 47.125 51.421875 43.28125 58.90625 
Q 39.453125 66.40625 31.78125 66.40625 
z
M 31.78125 74.21875 
Q 44.046875 74.21875 50.515625 64.515625 
Q 56.984375 54.828125 56.984375 36.375 
Q 56.984375 17.96875 50.515625 8.265625 
Q 44.046875 -1.421875 31.78125 -1.421875 
Q 19.53125 -1.421875 13.0625 8.265625 
Q 6.59375 17.96875 6.59375 36.375 
Q 6.59375 54.828125 13.0625 64.515625 
Q 19.53125 74.21875 31.78125 74.21875 
z
" id="DejaVuSans-48"/>
       </defs>
       <use xlink:href="#DejaVuSans-48"/>
      </g>
     </g>
    </g>
    <g id="xtick_4">
     <g id="line2d_4">
      <g>
       <use style="stroke:#000000;stroke-width:0.8;" x="509.125392" xlink:href="#m53c22c4143" y="378"/>
      </g>
     </g>
     <g id="text_4">
      <!-- 2 -->
      <g transform="translate(502.126642 401.716563)scale(0.22 -0.22)">
       <use xlink:href="#DejaVuSans-50"/>
      </g>
     </g>
    </g>
    <g id="xtick_5">
     <g id="line2d_5">
      <g>
       <use style="stroke:#000000;stroke-width:0.8;" x="591.349318" xlink:href="#m53c22c4143" y="378"/>
      </g>
     </g>
     <g id="text_5">
      <!-- 4 -->
      <g transform="translate(584.350568 401.716563)scale(0.22 -0.22)">
       <use xlink:href="#DejaVuSans-52"/>
      </g>
     </g>
    </g>
    <g id="text_6">
     <!-- $w$ -->
     <g transform="translate(439.432941 427.008438)scale(0.22 -0.22)">
      <defs>
       <path d="M 10.796875 11.625 
Q 10.796875 13.71875 11.359375 16.453125 
Q 11.921875 19.1875 12.59375 21.3125 
Q 13.28125 23.4375 14.90625 27.828125 
Q 16.546875 32.234375 16.703125 32.625 
Q 18.015625 36.28125 18.015625 38.625 
Q 18.015625 41.609375 15.828125 41.609375 
Q 11.859375 41.609375 9.296875 37.53125 
Q 6.734375 33.453125 5.515625 28.421875 
Q 5.328125 27.78125 4.6875 27.78125 
L 3.515625 27.78125 
Q 2.6875 27.78125 2.6875 28.71875 
L 2.6875 29 
Q 4.296875 34.96875 7.609375 39.578125 
Q 10.9375 44.1875 16.015625 44.1875 
Q 19.578125 44.1875 22.046875 41.84375 
Q 24.515625 39.5 24.515625 35.890625 
Q 24.515625 34.03125 23.6875 31.984375 
Q 22.515625 28.953125 20.921875 24.703125 
Q 19.34375 20.453125 18.453125 16.984375 
Q 17.578125 13.53125 17.578125 10.296875 
Q 17.578125 6.390625 19.625 3.953125 
Q 21.6875 1.515625 25.59375 1.515625 
Q 30.90625 1.515625 34.421875 9.625 
Q 34.28125 10.203125 34.28125 11.28125 
Q 34.28125 13.96875 35.109375 17.390625 
L 40.71875 39.890625 
Q 41.0625 41.21875 42.28125 42.15625 
Q 43.5 43.109375 44.921875 43.109375 
Q 46.09375 43.109375 47 42.328125 
Q 47.90625 41.546875 47.90625 40.28125 
Q 47.90625 39.703125 47.796875 39.5 
L 42.1875 17.1875 
Q 41.21875 13.1875 41.21875 10.015625 
Q 41.21875 6.25 42.9375 3.875 
Q 44.671875 1.515625 48.390625 1.515625 
Q 54.828125 1.515625 58.984375 10.015625 
Q 60.546875 13.03125 62.46875 18.9375 
Q 64.40625 24.859375 64.40625 27.984375 
Q 64.40625 30.859375 63.46875 32.546875 
Q 62.546875 34.234375 60.90625 36.1875 
Q 59.28125 38.140625 59.28125 39.109375 
Q 59.28125 41.015625 60.90625 42.640625 
Q 62.546875 44.28125 64.5 44.28125 
Q 66.890625 44.28125 67.9375 42.078125 
Q 69 39.890625 69 37.109375 
Q 69 33.734375 67.875 28.53125 
Q 66.75 23.34375 65.03125 18.09375 
Q 63.328125 12.84375 61.8125 9.71875 
Q 56.34375 -1.125 48.1875 -1.125 
Q 44 -1.125 40.53125 0.484375 
Q 37.0625 2.09375 35.40625 5.609375 
Q 33.796875 2.734375 31.171875 0.796875 
Q 28.5625 -1.125 25.390625 -1.125 
Q 18.796875 -1.125 14.796875 2.015625 
Q 10.796875 5.171875 10.796875 11.625 
z
" id="Cmmi10-119"/>
      </defs>
      <use transform="translate(0 0.71875)" xlink:href="#Cmmi10-119"/>
     </g>
    </g>
   </g>
   <g id="matplotlib.axis_2">
    <g id="ytick_1">
     <g id="line2d_6">
      <defs>
       <path d="M 0 0 
L -3.5 0 
" id="mea97733449" style="stroke:#000000;stroke-width:0.8;"/>
      </defs>
      <g>
       <use style="stroke:#000000;stroke-width:0.8;" x="234" xlink:href="#mea97733449" y="363.174561"/>
      </g>
     </g>
     <g id="text_7">
      <!-- 0.0 -->
      <g transform="translate(192.013125 371.532843)scale(0.22 -0.22)">
       <defs>
        <path d="M 10.6875 12.40625 
L 21 12.40625 
L 21 0 
L 10.6875 0 
z
" id="DejaVuSans-46"/>
       </defs>
       <use xlink:href="#DejaVuSans-48"/>
       <use x="63.623047" xlink:href="#DejaVuSans-46"/>
       <use x="95.410156" xlink:href="#DejaVuSans-48"/>
      </g>
     </g>
    </g>
    <g id="ytick_2">
     <g id="line2d_7">
      <g>
       <use style="stroke:#000000;stroke-width:0.8;" x="234" xlink:href="#mea97733449" y="292.998992"/>
      </g>
     </g>
     <g id="text_8">
      <!-- 0.1 -->
      <g transform="translate(192.013125 301.357273)scale(0.22 -0.22)">
       <defs>
        <path d="M 12.40625 8.296875 
L 28.515625 8.296875 
L 28.515625 63.921875 
L 10.984375 60.40625 
L 10.984375 69.390625 
L 28.421875 72.90625 
L 38.28125 72.90625 
L 38.28125 8.296875 
L 54.390625 8.296875 
L 54.390625 0 
L 12.40625 0 
z
" id="DejaVuSans-49"/>
       </defs>
       <use xlink:href="#DejaVuSans-48"/>
       <use x="63.623047" xlink:href="#DejaVuSans-46"/>
       <use x="95.410156" xlink:href="#DejaVuSans-49"/>
      </g>
     </g>
    </g>
    <g id="ytick_3">
     <g id="line2d_8">
      <g>
       <use style="stroke:#000000;stroke-width:0.8;" x="234" xlink:href="#mea97733449" y="222.823423"/>
      </g>
     </g>
     <g id="text_9">
      <!-- 0.2 -->
      <g transform="translate(192.013125 231.181704)scale(0.22 -0.22)">
       <use xlink:href="#DejaVuSans-48"/>
       <use x="63.623047" xlink:href="#DejaVuSans-46"/>
       <use x="95.410156" xlink:href="#DejaVuSans-50"/>
      </g>
     </g>
    </g>
    <g id="ytick_4">
     <g id="line2d_9">
      <g>
       <use style="stroke:#000000;stroke-width:0.8;" x="234" xlink:href="#mea97733449" y="152.647854"/>
      </g>
     </g>
     <g id="text_10">
      <!-- 0.3 -->
      <g transform="translate(192.013125 161.006135)scale(0.22 -0.22)">
       <defs>
        <path d="M 40.578125 39.3125 
Q 47.65625 37.796875 51.625 33 
Q 55.609375 28.21875 55.609375 21.1875 
Q 55.609375 10.40625 48.1875 4.484375 
Q 40.765625 -1.421875 27.09375 -1.421875 
Q 22.515625 -1.421875 17.65625 -0.515625 
Q 12.796875 0.390625 7.625 2.203125 
L 7.625 11.71875 
Q 11.71875 9.328125 16.59375 8.109375 
Q 21.484375 6.890625 26.8125 6.890625 
Q 36.078125 6.890625 40.9375 10.546875 
Q 45.796875 14.203125 45.796875 21.1875 
Q 45.796875 27.640625 41.28125 31.265625 
Q 36.765625 34.90625 28.71875 34.90625 
L 20.21875 34.90625 
L 20.21875 43.015625 
L 29.109375 43.015625 
Q 36.375 43.015625 40.234375 45.921875 
Q 44.09375 48.828125 44.09375 54.296875 
Q 44.09375 59.90625 40.109375 62.90625 
Q 36.140625 65.921875 28.71875 65.921875 
Q 24.65625 65.921875 20.015625 65.03125 
Q 15.375 64.15625 9.8125 62.3125 
L 9.8125 71.09375 
Q 15.4375 72.65625 20.34375 73.4375 
Q 25.25 74.21875 29.59375 74.21875 
Q 40.828125 74.21875 47.359375 69.109375 
Q 53.90625 64.015625 53.90625 55.328125 
Q 53.90625 49.265625 50.4375 45.09375 
Q 46.96875 40.921875 40.578125 39.3125 
z
" id="DejaVuSans-51"/>
       </defs>
       <use xlink:href="#DejaVuSans-48"/>
       <use x="63.623047" xlink:href="#DejaVuSans-46"/>
       <use x="95.410156" xlink:href="#DejaVuSans-51"/>
      </g>
     </g>
    </g>
    <g id="ytick_5">
     <g id="line2d_10">
      <g>
       <use style="stroke:#000000;stroke-width:0.8;" x="234" xlink:href="#mea97733449" y="82.472284"/>
      </g>
     </g>
     <g id="text_11">
      <!-- 0.4 -->
      <g transform="translate(192.013125 90.830566)scale(0.22 -0.22)">
       <use xlink:href="#DejaVuSans-48"/>
       <use x="63.623047" xlink:href="#DejaVuSans-46"/>
       <use x="95.410156" xlink:href="#DejaVuSans-52"/>
      </g>
     </g>
    </g>
    <g id="text_12">
     <!-- Density -->
     <g transform="translate(183.437813 256.738906)rotate(-90)scale(0.22 -0.22)">
      <defs>
       <path d="M 19.671875 64.796875 
L 19.671875 8.109375 
L 31.59375 8.109375 
Q 46.6875 8.109375 53.6875 14.9375 
Q 60.6875 21.78125 60.6875 36.53125 
Q 60.6875 51.171875 53.6875 57.984375 
Q 46.6875 64.796875 31.59375 64.796875 
z
M 9.8125 72.90625 
L 30.078125 72.90625 
Q 51.265625 72.90625 61.171875 64.09375 
Q 71.09375 55.28125 71.09375 36.53125 
Q 71.09375 17.671875 61.125 8.828125 
Q 51.171875 0 30.078125 0 
L 9.8125 0 
z
" id="DejaVuSans-68"/>
       <path d="M 56.203125 29.59375 
L 56.203125 25.203125 
L 14.890625 25.203125 
Q 15.484375 15.921875 20.484375 11.0625 
Q 25.484375 6.203125 34.421875 6.203125 
Q 39.59375 6.203125 44.453125 7.46875 
Q 49.3125 8.734375 54.109375 11.28125 
L 54.109375 2.78125 
Q 49.265625 0.734375 44.1875 -0.34375 
Q 39.109375 -1.421875 33.890625 -1.421875 
Q 20.796875 -1.421875 13.15625 6.1875 
Q 5.515625 13.8125 5.515625 26.8125 
Q 5.515625 40.234375 12.765625 48.109375 
Q 20.015625 56 32.328125 56 
Q 43.359375 56 49.78125 48.890625 
Q 56.203125 41.796875 56.203125 29.59375 
z
M 47.21875 32.234375 
Q 47.125 39.59375 43.09375 43.984375 
Q 39.0625 48.390625 32.421875 48.390625 
Q 24.90625 48.390625 20.390625 44.140625 
Q 15.875 39.890625 15.1875 32.171875 
z
" id="DejaVuSans-101"/>
       <path d="M 54.890625 33.015625 
L 54.890625 0 
L 45.90625 0 
L 45.90625 32.71875 
Q 45.90625 40.484375 42.875 44.328125 
Q 39.84375 48.1875 33.796875 48.1875 
Q 26.515625 48.1875 22.3125 43.546875 
Q 18.109375 38.921875 18.109375 30.90625 
L 18.109375 0 
L 9.078125 0 
L 9.078125 54.6875 
L 18.109375 54.6875 
L 18.109375 46.1875 
Q 21.34375 51.125 25.703125 53.5625 
Q 30.078125 56 35.796875 56 
Q 45.21875 56 50.046875 50.171875 
Q 54.890625 44.34375 54.890625 33.015625 
z
" id="DejaVuSans-110"/>
       <path d="M 44.28125 53.078125 
L 44.28125 44.578125 
Q 40.484375 46.53125 36.375 47.5 
Q 32.28125 48.484375 27.875 48.484375 
Q 21.1875 48.484375 17.84375 46.4375 
Q 14.5 44.390625 14.5 40.28125 
Q 14.5 37.15625 16.890625 35.375 
Q 19.28125 33.59375 26.515625 31.984375 
L 29.59375 31.296875 
Q 39.15625 29.25 43.1875 25.515625 
Q 47.21875 21.78125 47.21875 15.09375 
Q 47.21875 7.46875 41.1875 3.015625 
Q 35.15625 -1.421875 24.609375 -1.421875 
Q 20.21875 -1.421875 15.453125 -0.5625 
Q 10.6875 0.296875 5.421875 2 
L 5.421875 11.28125 
Q 10.40625 8.6875 15.234375 7.390625 
Q 20.0625 6.109375 24.8125 6.109375 
Q 31.15625 6.109375 34.5625 8.28125 
Q 37.984375 10.453125 37.984375 14.40625 
Q 37.984375 18.0625 35.515625 20.015625 
Q 33.0625 21.96875 24.703125 23.78125 
L 21.578125 24.515625 
Q 13.234375 26.265625 9.515625 29.90625 
Q 5.8125 33.546875 5.8125 39.890625 
Q 5.8125 47.609375 11.28125 51.796875 
Q 16.75 56 26.8125 56 
Q 31.78125 56 36.171875 55.265625 
Q 40.578125 54.546875 44.28125 53.078125 
z
" id="DejaVuSans-115"/>
       <path d="M 9.421875 54.6875 
L 18.40625 54.6875 
L 18.40625 0 
L 9.421875 0 
z
M 9.421875 75.984375 
L 18.40625 75.984375 
L 18.40625 64.59375 
L 9.421875 64.59375 
z
" id="DejaVuSans-105"/>
       <path d="M 18.3125 70.21875 
L 18.3125 54.6875 
L 36.8125 54.6875 
L 36.8125 47.703125 
L 18.3125 47.703125 
L 18.3125 18.015625 
Q 18.3125 11.328125 20.140625 9.421875 
Q 21.96875 7.515625 27.59375 7.515625 
L 36.8125 7.515625 
L 36.8125 0 
L 27.59375 0 
Q 17.1875 0 13.234375 3.875 
Q 9.28125 7.765625 9.28125 18.015625 
L 9.28125 47.703125 
L 2.6875 47.703125 
L 2.6875 54.6875 
L 9.28125 54.6875 
L 9.28125 70.21875 
z
" id="DejaVuSans-116"/>
       <path d="M 32.171875 -5.078125 
Q 28.375 -14.84375 24.75 -17.8125 
Q 21.140625 -20.796875 15.09375 -20.796875 
L 7.90625 -20.796875 
L 7.90625 -13.28125 
L 13.1875 -13.28125 
Q 16.890625 -13.28125 18.9375 -11.515625 
Q 21 -9.765625 23.484375 -3.21875 
L 25.09375 0.875 
L 2.984375 54.6875 
L 12.5 54.6875 
L 29.59375 11.921875 
L 46.6875 54.6875 
L 56.203125 54.6875 
z
" id="DejaVuSans-121"/>
      </defs>
      <use xlink:href="#DejaVuSans-68"/>
      <use x="77.001953" xlink:href="#DejaVuSans-101"/>
      <use x="138.525391" xlink:href="#DejaVuSans-110"/>
      <use x="201.904297" xlink:href="#DejaVuSans-115"/>
      <use x="254.003906" xlink:href="#DejaVuSans-105"/>
      <use x="281.787109" xlink:href="#DejaVuSans-116"/>
      <use x="320.996094" xlink:href="#DejaVuSans-121"/>
     </g>
    </g>
   </g>
   <g id="line2d_11">
    <path clip-path="url(#pf8989998d9)" d="M 253.395722 363.174542 
L 274.108209 363.065541 
L 279.057666 362.824893 
L 282.581051 362.44704 
L 285.552817 361.90512 
L 288.141458 361.209214 
L 290.548058 360.345442 
L 293.220221 359.137211 
L 296.199005 357.520882 
L 300.07159 355.135036 
L 315.678811 345.236139 
L 323.77035 340.524299 
L 336.931204 333.167514 
L 353.429085 323.891571 
L 363.233224 318.134071 
L 371.803653 312.862245 
L 379.798753 307.691929 
L 386.987742 302.796586 
L 394.452078 297.42866 
L 400.854504 292.562125 
L 407.395273 287.309445 
L 414.046621 281.642847 
L 419.427454 276.793007 
L 424.844459 271.646398 
L 430.281348 266.18953 
L 435.721959 260.409354 
L 441.149839 254.294219 
L 446.548939 247.833775 
L 451.903293 241.020219 
L 457.197754 233.848146 
L 462.417501 226.316207 
L 467.5488 218.42689 
L 472.578826 210.18852 
L 477.495716 201.615871 
L 482.288877 192.731217 
L 486.948856 183.565794 
L 491.467702 174.16077 
L 495.83858 164.568796 
L 501.086106 152.415617 
L 506.086783 140.226779 
L 511.755975 125.818825 
L 525.114601 91.53923 
L 528.068077 84.64503 
L 530.875534 78.699508 
L 532.888688 74.940812 
L 534.825535 71.835697 
L 536.075614 70.151705 
L 537.293848 68.78822 
L 538.481058 67.755427 
L 539.638138 67.060582 
L 540.765979 66.710566 
L 541.865522 66.708412 
L 542.937727 67.056294 
L 543.983467 67.755113 
L 545.003772 68.802128 
L 545.999513 70.194119 
L 546.971671 71.925522 
L 547.921147 73.988474 
L 549.304983 77.684784 
L 550.643044 82.069331 
L 551.938477 87.095706 
L 553.604567 94.709492 
L 555.207102 103.240606 
L 557.130902 114.980735 
L 558.977797 127.649213 
L 561.455667 146.413376 
L 564.826359 174.046287 
L 570.888954 224.167958 
L 573.676444 245.274284 
L 576.132584 262.22366 
L 578.271907 275.598679 
L 580.405252 287.625413 
L 582.533676 298.349705 
L 584.656699 307.841422 
L 586.772527 316.184708 
L 588.878446 323.471653 
L 590.673137 328.948875 
L 592.455692 333.779569 
L 594.223496 338.022277 
L 595.974029 341.732945 
L 597.990957 345.460806 
L 599.976656 348.61624 
L 601.927324 351.272301 
L 603.839352 353.495404 
L 605.709448 355.345607 
L 607.791519 357.072188 
L 609.811387 358.452294 
L 612.005317 359.666553 
L 614.341766 360.68106 
L 616.785192 361.484982 
L 619.49862 362.12787 
L 622.578795 362.610333 
L 626.196032 362.935786 
L 630.964988 363.119458 
L 639.39429 363.17408 
L 641.31016 363.174501 
L 641.31016 363.174501 
" style="fill:none;stroke:#00bfbf;stroke-linecap:square;stroke-width:3;"/>
   </g>
   <g id="patch_3">
    <path d="M 234 378 
L 234 51.84 
" style="fill:none;stroke:#000000;stroke-linecap:square;stroke-linejoin:miter;stroke-width:0.8;"/>
   </g>
   <g id="patch_4">
    <path d="M 660.705882 378 
L 660.705882 51.84 
" style="fill:none;stroke:#000000;stroke-linecap:square;stroke-linejoin:miter;stroke-width:0.8;"/>
   </g>
   <g id="patch_5">
    <path d="M 234 378 
L 660.705882 378 
" style="fill:none;stroke:#000000;stroke-linecap:square;stroke-linejoin:miter;stroke-width:0.8;"/>
   </g>
   <g id="patch_6">
    <path d="M 234 51.84 
L 660.705882 51.84 
" style="fill:none;stroke:#000000;stroke-linecap:square;stroke-linejoin:miter;stroke-width:0.8;"/>
   </g>
   <g id="text_13">
    <!-- $\varepsilon_{0}=1,$ $area_{0}=1.2529$ -->
    <g transform="translate(322.942941 45.84)scale(0.26 -0.26)">
     <defs>
      <path d="M 2.6875 10.40625 
Q 2.6875 13.140625 3.875 15.71875 
Q 5.078125 18.3125 7 20.359375 
Q 8.9375 22.40625 11.53125 24.03125 
Q 7.71875 26.65625 7.71875 30.8125 
Q 7.71875 35.25 11.421875 38.59375 
Q 15.140625 41.9375 20.5 43.625 
Q 25.875 45.3125 30.171875 45.3125 
Q 31.984375 45.3125 35.03125 44.5 
Q 38.09375 43.703125 40.375 42.375 
Q 42.671875 41.0625 42.671875 39.5 
Q 42.671875 38.328125 41.765625 37.421875 
Q 40.875 36.53125 39.796875 36.53125 
Q 39.359375 36.53125 37.578125 37.578125 
Q 35.796875 38.625 33.78125 39.453125 
Q 31.78125 40.28125 29.390625 40.28125 
Q 25.78125 40.28125 21.453125 39.421875 
Q 17.140625 38.578125 13.859375 36.453125 
Q 10.59375 34.328125 10.59375 30.90625 
Q 10.59375 27.640625 14.3125 25.390625 
Q 18.5 27.296875 22.90625 27.296875 
Q 30.71875 27.296875 30.71875 24.515625 
Q 30.71875 22.3125 28.046875 21.703125 
Q 25.390625 21.09375 21.921875 21.09375 
Q 17.234375 21.09375 14.203125 22.515625 
Q 10.890625 20.75 8.296875 17.578125 
Q 5.71875 14.40625 5.71875 10.984375 
Q 5.71875 7.765625 7.890625 5.953125 
Q 10.0625 4.15625 13.234375 3.46875 
Q 16.40625 2.78125 19.578125 2.78125 
Q 25.09375 2.78125 29.34375 3.96875 
Q 33.59375 5.171875 35.5 8.984375 
Q 35.796875 9.625 36.625 9.625 
Q 37.703125 9.28125 37.703125 8.296875 
Q 37.703125 8.203125 37.40625 7.328125 
Q 35.796875 4.15625 32.84375 2 
Q 29.890625 -0.140625 26.25 -1.171875 
Q 22.609375 -2.203125 18.796875 -2.203125 
Q 12.59375 -2.203125 7.640625 1.109375 
Q 2.6875 4.4375 2.6875 10.40625 
z
M 18.109375 24.03125 
Q 19.875 23.6875 22.125 23.6875 
Q 26.515625 23.6875 27.59375 24.3125 
Q 26.21875 24.703125 22.796875 24.703125 
Q 20.3125 24.703125 18.109375 24.03125 
z
" id="Cmmi10-34"/>
      <path d="M 25 -2.203125 
Q 12.75 -2.203125 8.328125 7.875 
Q 3.90625 17.96875 3.90625 31.890625 
Q 3.90625 40.578125 5.484375 48.234375 
Q 7.078125 55.90625 11.78125 61.25 
Q 16.5 66.609375 25 66.609375 
Q 31.59375 66.609375 35.78125 63.375 
Q 39.984375 60.15625 42.1875 55.046875 
Q 44.390625 49.953125 45.1875 44.109375 
Q 46 38.28125 46 31.890625 
Q 46 23.296875 44.40625 15.796875 
Q 42.828125 8.296875 38.1875 3.046875 
Q 33.546875 -2.203125 25 -2.203125 
z
M 25 0.390625 
Q 30.5625 0.390625 33.296875 6.09375 
Q 36.03125 11.8125 36.671875 18.75 
Q 37.3125 25.6875 37.3125 33.5 
Q 37.3125 41.015625 36.671875 47.359375 
Q 36.03125 53.71875 33.3125 58.859375 
Q 30.609375 64.015625 25 64.015625 
Q 19.34375 64.015625 16.609375 58.828125 
Q 13.875 53.65625 13.234375 47.328125 
Q 12.59375 41.015625 12.59375 33.5 
Q 12.59375 27.9375 12.859375 23 
Q 13.140625 18.0625 14.3125 12.8125 
Q 15.484375 7.5625 18.09375 3.96875 
Q 20.703125 0.390625 25 0.390625 
z
" id="Cmr10-48"/>
      <path d="M 7.515625 13.28125 
Q 6.6875 13.28125 6.140625 13.90625 
Q 5.609375 14.546875 5.609375 15.28125 
Q 5.609375 16.109375 6.140625 16.6875 
Q 6.6875 17.28125 7.515625 17.28125 
L 70.3125 17.28125 
Q 71.046875 17.28125 71.578125 16.6875 
Q 72.125 16.109375 72.125 15.28125 
Q 72.125 14.546875 71.578125 13.90625 
Q 71.046875 13.28125 70.3125 13.28125 
z
M 7.515625 32.71875 
Q 6.6875 32.71875 6.140625 33.296875 
Q 5.609375 33.890625 5.609375 34.71875 
Q 5.609375 35.453125 6.140625 36.078125 
Q 6.6875 36.71875 7.515625 36.71875 
L 70.3125 36.71875 
Q 71.046875 36.71875 71.578125 36.078125 
Q 72.125 35.453125 72.125 34.71875 
Q 72.125 33.890625 71.578125 33.296875 
Q 71.046875 32.71875 70.3125 32.71875 
z
" id="Cmr10-61"/>
      <path d="M 9.28125 0 
L 9.28125 3.515625 
Q 21.78125 3.515625 21.78125 6.6875 
L 21.78125 59.1875 
Q 16.609375 56.6875 8.6875 56.6875 
L 8.6875 60.203125 
Q 20.953125 60.203125 27.203125 66.609375 
L 28.609375 66.609375 
Q 28.953125 66.609375 29.265625 66.328125 
Q 29.59375 66.0625 29.59375 65.71875 
L 29.59375 6.6875 
Q 29.59375 3.515625 42.09375 3.515625 
L 42.09375 0 
z
" id="Cmr10-49"/>
      <path d="M 9.90625 -18.015625 
Q 9.90625 -17.578125 10.296875 -17.1875 
Q 13.921875 -13.71875 15.921875 -9.171875 
Q 17.921875 -4.640625 17.921875 0.390625 
L 17.921875 1.609375 
Q 16.3125 0 13.921875 0 
Q 11.625 0 10.015625 1.609375 
Q 8.40625 3.21875 8.40625 5.515625 
Q 8.40625 7.859375 10.015625 9.421875 
Q 11.625 10.984375 13.921875 10.984375 
Q 17.484375 10.984375 19 7.6875 
Q 20.515625 4.390625 20.515625 0.390625 
Q 20.515625 -5.171875 18.28125 -10.171875 
Q 16.0625 -15.1875 12.015625 -19.1875 
Q 11.625 -19.390625 11.375 -19.390625 
Q 10.890625 -19.390625 10.390625 -18.9375 
Q 9.90625 -18.5 9.90625 -18.015625 
z
" id="Cmmi10-59"/>
      <path id="DejaVuSans-32"/>
      <path d="M 17.390625 -1.125 
Q 11.078125 -1.125 7.4375 3.640625 
Q 3.8125 8.40625 3.8125 14.890625 
Q 3.8125 21.296875 7.125 28.171875 
Q 10.453125 35.0625 16.09375 39.625 
Q 21.734375 44.1875 28.21875 44.1875 
Q 31.203125 44.1875 33.546875 42.578125 
Q 35.890625 40.96875 37.203125 38.1875 
Q 38.328125 42.1875 41.609375 42.1875 
Q 42.875 42.1875 43.71875 41.421875 
Q 44.578125 40.671875 44.578125 39.40625 
Q 44.578125 39.109375 44.546875 38.953125 
Q 44.53125 38.8125 44.484375 38.625 
L 37.5 10.6875 
Q 36.8125 7.71875 36.8125 5.8125 
Q 36.8125 1.515625 39.703125 1.515625 
Q 42.828125 1.515625 44.453125 5.484375 
Q 46.09375 9.46875 47.21875 14.703125 
Q 47.40625 15.28125 48 15.28125 
L 49.21875 15.28125 
Q 49.609375 15.28125 49.84375 14.9375 
Q 50.09375 14.59375 50.09375 14.3125 
Q 48.34375 7.328125 46.265625 3.09375 
Q 44.1875 -1.125 39.5 -1.125 
Q 36.140625 -1.125 33.546875 0.84375 
Q 30.953125 2.828125 30.328125 6.109375 
Q 23.875 -1.125 17.390625 -1.125 
z
M 17.484375 1.515625 
Q 21.09375 1.515625 24.484375 4.21875 
Q 27.875 6.9375 30.328125 10.59375 
Q 30.421875 10.6875 30.421875 10.890625 
L 35.796875 32.625 
L 35.890625 32.90625 
Q 35.296875 36.46875 33.3125 39.03125 
Q 31.34375 41.609375 27.984375 41.609375 
Q 24.609375 41.609375 21.703125 38.84375 
Q 18.796875 36.078125 16.796875 32.328125 
Q 14.84375 28.328125 13.0625 21.34375 
Q 11.28125 14.359375 11.28125 10.5 
Q 11.28125 7.03125 12.765625 4.265625 
Q 14.265625 1.515625 17.484375 1.515625 
z
" id="Cmmi10-97"/>
      <path d="M 7.71875 1.703125 
Q 7.71875 2.296875 7.8125 2.59375 
L 15.28125 32.421875 
Q 16.015625 35.203125 16.015625 37.3125 
Q 16.015625 41.609375 13.09375 41.609375 
Q 9.96875 41.609375 8.453125 37.859375 
Q 6.9375 34.125 5.515625 28.421875 
Q 5.515625 28.125 5.21875 27.953125 
Q 4.9375 27.78125 4.6875 27.78125 
L 3.515625 27.78125 
Q 3.171875 27.78125 2.921875 28.140625 
Q 2.6875 28.515625 2.6875 28.8125 
Q 3.765625 33.15625 4.765625 36.171875 
Q 5.765625 39.203125 7.890625 41.6875 
Q 10.015625 44.1875 13.1875 44.1875 
Q 16.65625 44.1875 19.265625 42.1875 
Q 21.875 40.1875 22.515625 36.921875 
Q 25.046875 40.234375 28.296875 42.203125 
Q 31.546875 44.1875 35.40625 44.1875 
Q 38.578125 44.1875 40.984375 42.328125 
Q 43.40625 40.484375 43.40625 37.3125 
Q 43.40625 34.765625 41.8125 32.875 
Q 40.234375 31 37.59375 31 
Q 35.984375 31 34.890625 32 
Q 33.796875 33.015625 33.796875 34.625 
Q 33.796875 36.8125 35.40625 38.546875 
Q 37.015625 40.28125 39.109375 40.28125 
Q 37.5 41.609375 35.203125 41.609375 
Q 30.90625 41.609375 27.734375 38.546875 
Q 24.5625 35.5 22.015625 30.8125 
L 14.890625 2.203125 
Q 14.546875 0.828125 13.34375 -0.140625 
Q 12.15625 -1.125 10.6875 -1.125 
Q 9.46875 -1.125 8.59375 -0.34375 
Q 7.71875 0.4375 7.71875 1.703125 
z
" id="Cmmi10-114"/>
      <path d="M 20.125 -1.125 
Q 15.328125 -1.125 11.734375 1.359375 
Q 8.15625 3.859375 6.265625 8.078125 
Q 4.390625 12.3125 4.390625 17 
Q 4.390625 24.125 7.984375 30.390625 
Q 11.578125 36.671875 17.71875 40.421875 
Q 23.875 44.1875 30.90625 44.1875 
Q 35.203125 44.1875 38.40625 41.96875 
Q 41.609375 39.75 41.609375 35.59375 
Q 41.609375 29.828125 37.015625 27.015625 
Q 32.421875 24.21875 26.65625 23.5625 
Q 20.90625 22.90625 13.921875 22.90625 
L 13.625 22.90625 
Q 12.015625 16.9375 12.015625 12.703125 
Q 12.015625 8.25 14.0625 4.875 
Q 16.109375 1.515625 20.3125 1.515625 
Q 26.265625 1.515625 31.75 4.25 
Q 37.25 6.984375 40.71875 11.8125 
Q 41.015625 12.109375 41.5 12.109375 
Q 42 12.109375 42.5 11.546875 
Q 43.015625 10.984375 43.015625 10.5 
Q 43.015625 10.109375 42.828125 9.90625 
Q 39.15625 4.78125 32.953125 1.828125 
Q 26.765625 -1.125 20.125 -1.125 
z
M 14.203125 25.484375 
Q 20.015625 25.484375 24.953125 26.015625 
Q 29.890625 26.5625 33.890625 28.734375 
Q 37.890625 30.90625 37.890625 35.5 
Q 37.890625 37.359375 36.859375 38.75 
Q 35.84375 40.140625 34.203125 40.875 
Q 32.5625 41.609375 30.8125 41.609375 
Q 26.5625 41.609375 23.171875 39.3125 
Q 19.78125 37.015625 17.578125 33.328125 
Q 15.375 29.640625 14.203125 25.484375 
z
" id="Cmmi10-101"/>
      <path d="M 8.40625 5.515625 
Q 8.40625 7.765625 10.0625 9.375 
Q 11.71875 10.984375 13.921875 10.984375 
Q 15.28125 10.984375 16.59375 10.25 
Q 17.921875 9.515625 18.65625 8.203125 
Q 19.390625 6.890625 19.390625 5.515625 
Q 19.390625 3.328125 17.765625 1.65625 
Q 16.15625 0 13.921875 0 
Q 11.71875 0 10.0625 1.65625 
Q 8.40625 3.328125 8.40625 5.515625 
z
" id="Cmmi10-58"/>
      <path d="M 4.984375 0 
L 4.984375 2.6875 
Q 4.984375 2.9375 5.171875 3.21875 
L 20.703125 20.40625 
Q 24.21875 24.21875 26.40625 26.796875 
Q 28.609375 29.390625 30.75 32.765625 
Q 32.90625 36.140625 34.15625 39.625 
Q 35.40625 43.109375 35.40625 47.015625 
Q 35.40625 51.125 33.890625 54.859375 
Q 32.375 58.59375 29.375 60.84375 
Q 26.375 63.09375 22.125 63.09375 
Q 17.78125 63.09375 14.3125 60.46875 
Q 10.84375 57.859375 9.421875 53.71875 
Q 9.8125 53.8125 10.5 53.8125 
Q 12.75 53.8125 14.328125 52.296875 
Q 15.921875 50.78125 15.921875 48.390625 
Q 15.921875 46.09375 14.328125 44.5 
Q 12.75 42.921875 10.5 42.921875 
Q 8.15625 42.921875 6.5625 44.546875 
Q 4.984375 46.1875 4.984375 48.390625 
Q 4.984375 52.15625 6.390625 55.4375 
Q 7.8125 58.734375 10.46875 61.296875 
Q 13.140625 63.875 16.484375 65.234375 
Q 19.828125 66.609375 23.578125 66.609375 
Q 29.296875 66.609375 34.21875 64.1875 
Q 39.15625 61.765625 42.03125 57.34375 
Q 44.921875 52.9375 44.921875 47.015625 
Q 44.921875 42.671875 43.015625 38.765625 
Q 41.109375 34.859375 38.125 31.65625 
Q 35.15625 28.46875 30.515625 24.40625 
Q 25.875 20.359375 24.421875 19 
L 13.09375 8.109375 
L 22.703125 8.109375 
Q 29.78125 8.109375 34.546875 8.21875 
Q 39.3125 8.34375 39.59375 8.59375 
Q 40.765625 9.859375 42 17.828125 
L 44.921875 17.828125 
L 42.09375 0 
z
" id="Cmr10-50"/>
      <path d="M 8.6875 11.375 
Q 9.71875 8.453125 11.84375 6.046875 
Q 13.96875 3.65625 16.875 2.3125 
Q 19.78125 0.984375 22.90625 0.984375 
Q 30.125 0.984375 32.859375 6.59375 
Q 35.59375 12.203125 35.59375 20.21875 
Q 35.59375 23.6875 35.46875 26.046875 
Q 35.359375 28.421875 34.8125 30.609375 
Q 33.890625 34.125 31.5625 36.765625 
Q 29.25 39.40625 25.875 39.40625 
Q 22.515625 39.40625 20.09375 38.375 
Q 17.671875 37.359375 16.15625 35.984375 
Q 14.65625 34.625 13.484375 33.109375 
Q 12.3125 31.59375 12.015625 31.5 
L 10.890625 31.5 
Q 10.640625 31.5 10.265625 31.8125 
Q 9.90625 32.125 9.90625 32.421875 
L 9.90625 65.828125 
Q 9.90625 66.0625 10.21875 66.328125 
Q 10.546875 66.609375 10.890625 66.609375 
L 11.1875 66.609375 
Q 17.921875 63.375 25.484375 63.375 
Q 32.90625 63.375 39.796875 66.609375 
L 40.09375 66.609375 
Q 40.4375 66.609375 40.71875 66.359375 
Q 41.015625 66.109375 41.015625 65.828125 
L 41.015625 64.890625 
Q 41.015625 64.40625 40.828125 64.40625 
Q 37.40625 59.859375 32.25 57.3125 
Q 27.09375 54.78125 21.578125 54.78125 
Q 17.578125 54.78125 13.375 55.90625 
L 13.375 37.015625 
Q 16.703125 39.703125 19.3125 40.84375 
Q 21.921875 42 25.984375 42 
Q 31.5 42 35.859375 38.8125 
Q 40.234375 35.640625 42.578125 30.53125 
Q 44.921875 25.4375 44.921875 20.125 
Q 44.921875 14.109375 41.96875 8.984375 
Q 39.015625 3.859375 33.9375 0.828125 
Q 28.859375 -2.203125 22.90625 -2.203125 
Q 17.96875 -2.203125 13.84375 0.328125 
Q 9.71875 2.875 7.34375 7.171875 
Q 4.984375 11.46875 4.984375 16.3125 
Q 4.984375 18.5625 6.4375 19.96875 
Q 7.90625 21.390625 10.109375 21.390625 
Q 12.3125 21.390625 13.796875 19.9375 
Q 15.28125 18.5 15.28125 16.3125 
Q 15.28125 14.15625 13.796875 12.671875 
Q 12.3125 11.1875 10.109375 11.1875 
Q 9.765625 11.1875 9.328125 11.25 
Q 8.890625 11.328125 8.6875 11.375 
z
" id="Cmr10-53"/>
      <path d="M 11.28125 4.203125 
Q 14.015625 0.984375 20.796875 0.984375 
Q 24.609375 0.984375 27.90625 3.5625 
Q 31.203125 6.15625 33.015625 9.90625 
Q 35.109375 14.15625 35.6875 18.96875 
Q 36.28125 23.78125 36.28125 30.90625 
Q 34.578125 26.859375 31.375 24.265625 
Q 28.171875 21.6875 24.03125 21.6875 
Q 18.21875 21.6875 13.640625 24.828125 
Q 9.078125 27.984375 6.640625 33.125 
Q 4.203125 38.28125 4.203125 44.09375 
Q 4.203125 50.09375 6.9375 55.296875 
Q 9.671875 60.5 14.5 63.546875 
Q 19.34375 66.609375 25.484375 66.609375 
Q 31.546875 66.609375 35.625 63.3125 
Q 39.703125 60.015625 41.84375 54.8125 
Q 44 49.609375 44.84375 43.796875 
Q 45.703125 37.984375 45.703125 32.328125 
Q 45.703125 24.609375 42.875 16.578125 
Q 40.046875 8.546875 34.40625 3.171875 
Q 28.765625 -2.203125 20.796875 -2.203125 
Q 14.890625 -2.203125 10.78125 0.578125 
Q 6.6875 3.375 6.6875 8.984375 
Q 6.6875 11.03125 8.078125 12.421875 
Q 9.46875 13.8125 11.53125 13.8125 
Q 13.53125 13.8125 14.921875 12.421875 
Q 16.3125 11.03125 16.3125 8.984375 
Q 16.3125 7.03125 14.890625 5.609375 
Q 13.484375 4.203125 11.53125 4.203125 
z
M 24.421875 24.3125 
Q 28.515625 24.3125 31.125 27.0625 
Q 33.734375 29.828125 34.90625 33.921875 
Q 36.078125 38.03125 36.078125 42.09375 
L 36.078125 44 
L 36.078125 44.390625 
Q 36.078125 51.90625 33.875 57.8125 
Q 31.6875 63.71875 25.484375 63.71875 
Q 21.53125 63.71875 19.0625 61.984375 
Q 16.609375 60.25 15.4375 57.375 
Q 14.265625 54.5 13.9375 51.21875 
Q 13.625 47.953125 13.625 44.09375 
Q 13.625 38.421875 14.15625 34.421875 
Q 14.703125 30.421875 17.09375 27.359375 
Q 19.484375 24.3125 24.421875 24.3125 
z
" id="Cmr10-57"/>
     </defs>
     <use transform="translate(0 0.390625)" xlink:href="#Cmmi10-34"/>
     <use transform="translate(46.582031 -16.615625)scale(0.7)" xlink:href="#Cmr10-48"/>
     <use transform="translate(105.517969 0.390625)" xlink:href="#Cmr10-61"/>
     <use transform="translate(200.762109 0.390625)" xlink:href="#Cmr10-49"/>
     <use transform="translate(250.762109 0.390625)" xlink:href="#Cmmi10-59"/>
     <use transform="translate(296.00625 0.390625)" xlink:href="#DejaVuSans-32"/>
     <use transform="translate(327.793359 0.390625)" xlink:href="#Cmmi10-97"/>
     <use transform="translate(380.576563 0.390625)" xlink:href="#Cmmi10-114"/>
     <use transform="translate(425.69375 0.390625)" xlink:href="#Cmmi10-101"/>
     <use transform="translate(472.178125 0.390625)" xlink:href="#Cmmi10-97"/>
     <use transform="translate(524.961328 -16.615625)scale(0.7)" xlink:href="#Cmr10-48"/>
     <use transform="translate(583.897266 0.390625)" xlink:href="#Cmr10-61"/>
     <use transform="translate(679.141406 0.390625)" xlink:href="#Cmr10-49"/>
     <use transform="translate(729.141406 0.390625)" xlink:href="#Cmmi10-58"/>
     <use transform="translate(756.826953 0.390625)" xlink:href="#Cmr10-50"/>
     <use transform="translate(806.826953 0.390625)" xlink:href="#Cmr10-53"/>
     <use transform="translate(856.826953 0.390625)" xlink:href="#Cmr10-50"/>
     <use transform="translate(906.826953 0.390625)" xlink:href="#Cmr10-57"/>
    </g>
   </g>
  </g>
  <g id="axes_2">
   <g id="patch_7">
    <path d="M 746.047059 378 
L 1172.752941 378 
L 1172.752941 51.84 
L 746.047059 51.84 
z
" style="fill:#ffffff;"/>
   </g>
   <g id="matplotlib.axis_3">
    <g id="xtick_6">
     <g id="line2d_12">
      <g>
       <use style="stroke:#000000;stroke-width:0.8;" x="774.500676" xlink:href="#m53c22c4143" y="378"/>
      </g>
     </g>
     <g id="text_14">
      <!-- −4 -->
      <g transform="translate(758.284269 401.716563)scale(0.22 -0.22)">
       <use xlink:href="#DejaVuSans-8722"/>
       <use x="83.789062" xlink:href="#DejaVuSans-52"/>
      </g>
     </g>
    </g>
    <g id="xtick_7">
     <g id="line2d_13">
      <g>
       <use style="stroke:#000000;stroke-width:0.8;" x="856.724601" xlink:href="#m53c22c4143" y="378"/>
      </g>
     </g>
     <g id="text_15">
      <!-- −2 -->
      <g transform="translate(840.508195 401.716563)scale(0.22 -0.22)">
       <use xlink:href="#DejaVuSans-8722"/>
       <use x="83.789062" xlink:href="#DejaVuSans-50"/>
      </g>
     </g>
    </g>
    <g id="xtick_8">
     <g id="line2d_14">
      <g>
       <use style="stroke:#000000;stroke-width:0.8;" x="938.948526" xlink:href="#m53c22c4143" y="378"/>
      </g>
     </g>
     <g id="text_16">
      <!-- 0 -->
      <g transform="translate(931.949776 401.716563)scale(0.22 -0.22)">
       <use xlink:href="#DejaVuSans-48"/>
      </g>
     </g>
    </g>
    <g id="xtick_9">
     <g id="line2d_15">
      <g>
       <use style="stroke:#000000;stroke-width:0.8;" x="1021.172451" xlink:href="#m53c22c4143" y="378"/>
      </g>
     </g>
     <g id="text_17">
      <!-- 2 -->
      <g transform="translate(1014.173701 401.716563)scale(0.22 -0.22)">
       <use xlink:href="#DejaVuSans-50"/>
      </g>
     </g>
    </g>
    <g id="xtick_10">
     <g id="line2d_16">
      <g>
       <use style="stroke:#000000;stroke-width:0.8;" x="1103.396377" xlink:href="#m53c22c4143" y="378"/>
      </g>
     </g>
     <g id="text_18">
      <!-- 4 -->
      <g transform="translate(1096.397627 401.716563)scale(0.22 -0.22)">
       <use xlink:href="#DejaVuSans-52"/>
      </g>
     </g>
    </g>
    <g id="text_19">
     <!-- $w$ -->
     <g transform="translate(951.48 427.008438)scale(0.22 -0.22)">
      <use transform="translate(0 0.71875)" xlink:href="#Cmmi10-119"/>
     </g>
    </g>
   </g>
   <g id="matplotlib.axis_4">
    <g id="ytick_6">
     <g id="line2d_17">
      <g>
       <use style="stroke:#000000;stroke-width:0.8;" x="746.047059" xlink:href="#mea97733449" y="363.174561"/>
      </g>
     </g>
    </g>
    <g id="ytick_7">
     <g id="line2d_18">
      <g>
       <use style="stroke:#000000;stroke-width:0.8;" x="746.047059" xlink:href="#mea97733449" y="292.998992"/>
      </g>
     </g>
    </g>
    <g id="ytick_8">
     <g id="line2d_19">
      <g>
       <use style="stroke:#000000;stroke-width:0.8;" x="746.047059" xlink:href="#mea97733449" y="222.823423"/>
      </g>
     </g>
    </g>
    <g id="ytick_9">
     <g id="line2d_20">
      <g>
       <use style="stroke:#000000;stroke-width:0.8;" x="746.047059" xlink:href="#mea97733449" y="152.647854"/>
      </g>
     </g>
    </g>
    <g id="ytick_10">
     <g id="line2d_21">
      <g>
       <use style="stroke:#000000;stroke-width:0.8;" x="746.047059" xlink:href="#mea97733449" y="82.472284"/>
      </g>
     </g>
    </g>
   </g>
   <g id="line2d_22">
    <path clip-path="url(#pdea0850b34)" d="M 765.442781 363.174536 
L 785.773947 363.066328 
L 790.900984 362.81751 
L 794.208316 362.456443 
L 796.958482 361.934538 
L 799.10547 361.312124 
L 801.059666 360.524314 
L 803.036642 359.452605 
L 804.593608 358.383938 
L 807.08718 356.185264 
L 808.95116 354.182579 
L 814.189928 347.103658 
L 816.390259 343.935396 
L 820.996925 337.543907 
L 822.361128 335.889334 
L 825.693974 332.202905 
L 828.578866 329.386385 
L 829.904312 328.276568 
L 833.730996 325.328564 
L 834.758995 324.687731 
L 835.817409 324.01432 
L 837.463964 322.949576 
L 842.220883 320.344521 
L 845.48198 318.74857 
L 846.851701 318.128419 
L 850.444817 316.581738 
L 854.286046 315.011676 
L 859.232357 313.154679 
L 909.041768 296.202051 
L 919.442332 292.257361 
L 924.755955 290.148807 
L 934.179488 286.162101 
L 947.769018 279.788324 
L 953.196898 277.012828 
L 961.279731 272.498589 
L 967.92761 268.475456 
L 977.042091 262.366272 
L 979.595859 260.555208 
L 982.124294 258.660132 
L 985.866172 255.6862 
L 993.149799 249.554983 
L 1000.139149 242.921287 
L 1005.719022 237.025205 
L 1011.063459 230.827911 
L 1017.153735 223.029789 
L 1019.103936 220.297162 
L 1023.803034 213.388396 
L 1030.798128 201.877808 
L 1034.057383 196.010253 
L 1036.399909 191.634051 
L 1038.656953 187.294647 
L 1044.273367 175.563992 
L 1044.935747 174.487739 
L 1046.235296 171.519652 
L 1050.528117 162.564801 
L 1052.252665 159.273196 
L 1052.813038 157.897414 
L 1054.984786 153.952562 
L 1055.5109 153.253994 
L 1057.050831 150.562913 
L 1058.046572 149.139447 
L 1058.535547 148.631028 
L 1059.01873 147.80796 
L 1060.895991 145.93773 
L 1061.352042 145.541829 
L 1062.24897 145.100252 
L 1062.690103 145.17893 
L 1063.558293 144.887118 
L 1063.985536 145.110395 
L 1064.408407 144.97801 
L 1064.826956 145.465598 
L 1065.24133 145.718552 
L 1065.651626 146.10615 
L 1066.057991 146.315269 
L 1066.460416 146.913721 
L 1066.859126 147.268757 
L 1068.033653 149.22191 
L 1069.177961 151.488167 
L 1069.553068 152.974061 
L 1070.294579 154.989476 
L 1071.386015 158.799453 
L 1072.806206 164.22953 
L 1073.155495 166.360913 
L 1073.502726 167.634447 
L 1076.873418 186.151971 
L 1077.528897 190.595548 
L 1078.179368 194.589547 
L 1081.054703 214.762871 
L 1081.998161 221.674137 
L 1082.936012 228.127763 
L 1084.488656 239.604763 
L 1088.485735 267.082964 
L 1090.62401 280.464608 
L 1094.580735 301.58378 
L 1097.006488 312.50859 
L 1097.913816 316.042205 
L 1098.819586 319.419837 
L 1100.325014 324.711139 
L 1102.421856 331.169377 
L 1103.613154 334.477164 
L 1106.563572 341.406783 
L 1108.889042 345.851747 
L 1110.893091 349.06813 
L 1113.14293 352.061815 
L 1115.34427 354.481408 
L 1119.323784 357.803054 
L 1122.843964 359.804342 
L 1124.528354 360.527057 
L 1127.068564 361.385256 
L 1129.687365 362.022568 
L 1133.313365 362.597569 
L 1136.920958 362.920092 
L 1141.400837 363.102832 
L 1148.129576 363.170648 
L 1153.357219 363.174519 
L 1153.357219 363.174519 
" style="fill:none;stroke:#00bfbf;stroke-linecap:square;stroke-width:3;"/>
   </g>
   <g id="patch_8">
    <path d="M 746.047059 378 
L 746.047059 51.84 
" style="fill:none;stroke:#000000;stroke-linecap:square;stroke-linejoin:miter;stroke-width:0.8;"/>
   </g>
   <g id="patch_9">
    <path d="M 1172.752941 378 
L 1172.752941 51.84 
" style="fill:none;stroke:#000000;stroke-linecap:square;stroke-linejoin:miter;stroke-width:0.8;"/>
   </g>
   <g id="patch_10">
    <path d="M 746.047059 378 
L 1172.752941 378 
" style="fill:none;stroke:#000000;stroke-linecap:square;stroke-linejoin:miter;stroke-width:0.8;"/>
   </g>
   <g id="patch_11">
    <path d="M 746.047059 51.84 
L 1172.752941 51.84 
" style="fill:none;stroke:#000000;stroke-linecap:square;stroke-linejoin:miter;stroke-width:0.8;"/>
   </g>
   <g id="text_20">
    <!-- $\varepsilon_{1}=0.001,$ $area_{1}=1.0002$ -->
    <g transform="translate(811.85 45.84)scale(0.26 -0.26)">
     <use transform="translate(0 0.390625)" xlink:href="#Cmmi10-34"/>
     <use transform="translate(46.582031 -16.615625)scale(0.7)" xlink:href="#Cmr10-49"/>
     <use transform="translate(105.517969 0.390625)" xlink:href="#Cmr10-61"/>
     <use transform="translate(200.762109 0.390625)" xlink:href="#Cmr10-48"/>
     <use transform="translate(250.762109 0.390625)" xlink:href="#Cmmi10-58"/>
     <use transform="translate(278.447656 0.390625)" xlink:href="#Cmr10-48"/>
     <use transform="translate(328.447656 0.390625)" xlink:href="#Cmr10-48"/>
     <use transform="translate(378.447656 0.390625)" xlink:href="#Cmr10-49"/>
     <use transform="translate(428.447656 0.390625)" xlink:href="#Cmmi10-59"/>
     <use transform="translate(473.691797 0.390625)" xlink:href="#DejaVuSans-32"/>
     <use transform="translate(505.478906 0.390625)" xlink:href="#Cmmi10-97"/>
     <use transform="translate(558.262109 0.390625)" xlink:href="#Cmmi10-114"/>
     <use transform="translate(603.379297 0.390625)" xlink:href="#Cmmi10-101"/>
     <use transform="translate(649.863672 0.390625)" xlink:href="#Cmmi10-97"/>
     <use transform="translate(702.646875 -16.615625)scale(0.7)" xlink:href="#Cmr10-49"/>
     <use transform="translate(761.582813 0.390625)" xlink:href="#Cmr10-61"/>
     <use transform="translate(856.826953 0.390625)" xlink:href="#Cmr10-49"/>
     <use transform="translate(906.826953 0.390625)" xlink:href="#Cmmi10-58"/>
     <use transform="translate(934.5125 0.390625)" xlink:href="#Cmr10-48"/>
     <use transform="translate(984.5125 0.390625)" xlink:href="#Cmr10-48"/>
     <use transform="translate(1034.5125 0.390625)" xlink:href="#Cmr10-48"/>
     <use transform="translate(1084.5125 0.390625)" xlink:href="#Cmr10-50"/>
    </g>
   </g>
  </g>
  <g id="axes_3">
   <g id="patch_12">
    <path d="M 1258.094118 378 
L 1684.8 378 
L 1684.8 51.84 
L 1258.094118 51.84 
z
" style="fill:#ffffff;"/>
   </g>
   <g id="matplotlib.axis_5">
    <g id="xtick_11">
     <g id="line2d_23">
      <g>
       <use style="stroke:#000000;stroke-width:0.8;" x="1286.547734" xlink:href="#m53c22c4143" y="378"/>
      </g>
     </g>
     <g id="text_21">
      <!-- −4 -->
      <g transform="translate(1270.331328 401.716563)scale(0.22 -0.22)">
       <use xlink:href="#DejaVuSans-8722"/>
       <use x="83.789062" xlink:href="#DejaVuSans-52"/>
      </g>
     </g>
    </g>
    <g id="xtick_12">
     <g id="line2d_24">
      <g>
       <use style="stroke:#000000;stroke-width:0.8;" x="1368.77166" xlink:href="#m53c22c4143" y="378"/>
      </g>
     </g>
     <g id="text_22">
      <!-- −2 -->
      <g transform="translate(1352.555253 401.716563)scale(0.22 -0.22)">
       <use xlink:href="#DejaVuSans-8722"/>
       <use x="83.789062" xlink:href="#DejaVuSans-50"/>
      </g>
     </g>
    </g>
    <g id="xtick_13">
     <g id="line2d_25">
      <g>
       <use style="stroke:#000000;stroke-width:0.8;" x="1450.995585" xlink:href="#m53c22c4143" y="378"/>
      </g>
     </g>
     <g id="text_23">
      <!-- 0 -->
      <g transform="translate(1443.996835 401.716563)scale(0.22 -0.22)">
       <use xlink:href="#DejaVuSans-48"/>
      </g>
     </g>
    </g>
    <g id="xtick_14">
     <g id="line2d_26">
      <g>
       <use style="stroke:#000000;stroke-width:0.8;" x="1533.21951" xlink:href="#m53c22c4143" y="378"/>
      </g>
     </g>
     <g id="text_24">
      <!-- 2 -->
      <g transform="translate(1526.22076 401.716563)scale(0.22 -0.22)">
       <use xlink:href="#DejaVuSans-50"/>
      </g>
     </g>
    </g>
    <g id="xtick_15">
     <g id="line2d_27">
      <g>
       <use style="stroke:#000000;stroke-width:0.8;" x="1615.443435" xlink:href="#m53c22c4143" y="378"/>
      </g>
     </g>
     <g id="text_25">
      <!-- 4 -->
      <g transform="translate(1608.444685 401.716563)scale(0.22 -0.22)">
       <use xlink:href="#DejaVuSans-52"/>
      </g>
     </g>
    </g>
    <g id="text_26">
     <!-- $w$ -->
     <g transform="translate(1463.527059 427.008438)scale(0.22 -0.22)">
      <use transform="translate(0 0.71875)" xlink:href="#Cmmi10-119"/>
     </g>
    </g>
   </g>
   <g id="matplotlib.axis_6">
    <g id="ytick_11">
     <g id="line2d_28">
      <g>
       <use style="stroke:#000000;stroke-width:0.8;" x="1258.094118" xlink:href="#mea97733449" y="363.174561"/>
      </g>
     </g>
    </g>
    <g id="ytick_12">
     <g id="line2d_29">
      <g>
       <use style="stroke:#000000;stroke-width:0.8;" x="1258.094118" xlink:href="#mea97733449" y="292.998992"/>
      </g>
     </g>
    </g>
    <g id="ytick_13">
     <g id="line2d_30">
      <g>
       <use style="stroke:#000000;stroke-width:0.8;" x="1258.094118" xlink:href="#mea97733449" y="222.823423"/>
      </g>
     </g>
    </g>
    <g id="ytick_14">
     <g id="line2d_31">
      <g>
       <use style="stroke:#000000;stroke-width:0.8;" x="1258.094118" xlink:href="#mea97733449" y="152.647854"/>
      </g>
     </g>
    </g>
    <g id="ytick_15">
     <g id="line2d_32">
      <g>
       <use style="stroke:#000000;stroke-width:0.8;" x="1258.094118" xlink:href="#mea97733449" y="82.472284"/>
      </g>
     </g>
    </g>
   </g>
   <g id="line2d_33">
    <path clip-path="url(#pa6b06ef744)" d="M 1277.48984 363.174543 
L 1298.202327 363.077778 
L 1298.972096 363.01704 
L 1299.555356 363.022348 
L 1300.340661 362.936635 
L 1301.935776 362.868973 
L 1305.628125 362.551741 
L 1305.836885 362.392988 
L 1306.045948 362.529397 
L 1306.255375 362.373613 
L 1307.096247 362.325328 
L 1307.51852 362.132026 
L 1307.730103 362.344991 
L 1307.94199 362.104465 
L 1308.154132 362.270102 
L 1308.579336 361.957131 
L 1308.792291 361.904009 
L 1309.00554 362.101294 
L 1309.219084 361.936914 
L 1309.432911 361.539178 
L 1309.646935 361.82791 
L 1310.075844 361.537868 
L 1310.505724 361.494595 
L 1310.721091 361.320566 
L 1310.936682 361.349797 
L 1311.152529 360.89292 
L 1311.368621 360.946049 
L 1311.584958 361.405879 
L 1312.018445 360.656718 
L 1312.235575 360.707126 
L 1312.452951 360.60577 
L 1312.670601 360.782102 
L 1313.106725 359.8924 
L 1313.325169 360.735266 
L 1313.762989 359.913853 
L 1313.982305 360.429286 
L 1314.421918 358.722325 
L 1314.642176 359.362904 
L 1314.862786 359.212624 
L 1315.083701 359.841307 
L 1315.304987 359.537704 
L 1315.526597 360.267937 
L 1315.748658 357.940796 
L 1316.193829 359.141967 
L 1316.640667 358.827134 
L 1316.864786 357.909433 
L 1317.089317 358.256221 
L 1317.314338 357.801774 
L 1317.539869 357.599605 
L 1317.7659 358.179375 
L 1317.992489 357.474744 
L 1318.219628 356.219582 
L 1318.447315 357.335853 
L 1318.675649 356.111515 
L 1318.904621 357.183438 
L 1319.134239 355.983706 
L 1319.364514 355.721735 
L 1319.827289 354.230828 
L 1320.059789 355.298838 
L 1320.293122 354.587259 
L 1320.527279 354.280832 
L 1320.762308 354.841917 
L 1320.998219 354.115687 
L 1321.23509 353.796494 
L 1321.472962 352.388885 
L 1321.711813 352.012061 
L 1321.951743 350.179889 
L 1322.192722 353.821667 
L 1322.434867 353.902237 
L 1322.678188 353.583827 
L 1322.922784 352.354215 
L 1323.168634 350.21924 
L 1323.415788 351.055814 
L 1323.664323 348.558942 
L 1323.914251 351.351993 
L 1324.165708 350.401224 
L 1324.418694 346.093975 
L 1324.673209 347.385367 
L 1324.92938 350.262318 
L 1325.187267 347.93297 
L 1325.446909 348.150028 
L 1325.708353 348.953771 
L 1325.97168 347.854669 
L 1326.236987 345.854465 
L 1326.504254 347.532945 
L 1327.045131 347.800865 
L 1327.318887 343.537892 
L 1327.594917 342.919177 
L 1327.87325 344.100553 
L 1328.154054 344.324797 
L 1328.437317 345.898762 
L 1328.723208 346.592977 
L 1329.011804 343.348192 
L 1329.303106 343.527089 
L 1329.597249 340.287705 
L 1329.894246 344.472593 
L 1330.19429 340.825766 
L 1330.803691 339.467185 
L 1331.113214 340.570809 
L 1331.426109 338.040522 
L 1331.742405 341.613192 
L 1332.062269 337.56766 
L 1332.38574 336.821733 
L 1332.712936 337.994906 
L 1333.043984 335.276155 
L 1333.378874 338.302407 
L 1333.717842 337.59266 
L 1334.060897 333.943336 
L 1334.408186 337.81423 
L 1335.115822 336.373306 
L 1335.476432 331.693222 
L 1335.841649 332.979681 
L 1336.21161 333.150205 
L 1336.586404 335.050727 
L 1336.966196 328.095259 
L 1337.350998 335.152557 
L 1337.741033 332.705938 
L 1338.136362 332.784512 
L 1338.53711 331.05828 
L 1338.943358 332.039923 
L 1339.355252 331.220703 
L 1339.772928 329.447809 
L 1340.196408 329.531606 
L 1340.625925 328.661316 
L 1341.06148 330.496795 
L 1341.503299 326.868379 
L 1341.951371 327.904754 
L 1342.405971 327.013271 
L 1342.86709 327.958108 
L 1343.334884 325.178613 
L 1343.80948 325.233507 
L 1344.77951 323.343038 
L 1345.275131 327.008301 
L 1345.778055 323.421128 
L 1346.288281 326.888472 
L 1346.806054 326.810116 
L 1347.331443 322.481482 
L 1347.864468 324.235747 
L 1348.405344 324.981183 
L 1348.95418 323.257575 
L 1349.511023 322.331229 
L 1350.076012 323.896497 
L 1350.649244 324.54188 
L 1351.230866 322.08195 
L 1351.820948 318.470315 
L 1352.419577 321.050848 
L 1353.643015 319.155675 
L 1354.267942 321.457985 
L 1355.54483 319.618849 
L 1356.196967 319.47329 
L 1356.858337 321.512343 
L 1357.529039 319.904209 
L 1358.209121 323.068001 
L 1358.89876 315.64495 
L 1359.597926 319.349603 
L 1360.306738 318.44241 
L 1361.025322 316.774643 
L 1361.753668 315.827811 
L 1362.491875 315.647763 
L 1363.240012 317.63028 
L 1363.998166 315.269351 
L 1364.766357 314.32001 
L 1365.544663 311.75209 
L 1366.333105 312.386515 
L 1367.131741 313.720611 
L 1367.940609 315.609396 
L 1368.75979 316.029793 
L 1369.589267 316.72778 
L 1370.429149 314.89598 
L 1371.279415 311.18584 
L 1372.140033 314.404669 
L 1373.011129 312.167614 
L 1373.892654 311.931767 
L 1374.784588 312.029582 
L 1375.687016 310.771294 
L 1376.599848 311.865998 
L 1377.523202 312.251536 
L 1378.456996 310.050437 
L 1379.401194 312.042961 
L 1381.320858 310.279482 
L 1382.296236 309.706863 
L 1383.28194 310.076501 
L 1384.277994 305.507891 
L 1385.284228 308.625706 
L 1386.300705 308.989844 
L 1387.327342 308.730223 
L 1388.364114 303.527277 
L 1389.410795 309.386304 
L 1390.467553 307.040638 
L 1391.534156 305.852307 
L 1392.610542 308.016273 
L 1393.696715 304.080299 
L 1394.79247 306.327566 
L 1395.897771 303.925395 
L 1397.012511 304.312789 
L 1398.136613 303.761404 
L 1400.41228 303.284968 
L 1401.56367 304.245295 
L 1402.723891 300.937644 
L 1403.89287 300.394848 
L 1405.070401 302.049016 
L 1406.256401 302.417421 
L 1407.450718 300.99293 
L 1408.653176 300.469365 
L 1409.863597 301.447259 
L 1411.08186 299.738506 
L 1412.307795 301.725216 
L 1413.541212 299.174472 
L 1414.781918 299.86274 
L 1416.02982 296.930385 
L 1417.284589 298.281201 
L 1419.814336 294.640935 
L 1421.088827 299.01882 
L 1422.369535 296.502344 
L 1423.656183 296.032089 
L 1424.948621 292.058967 
L 1426.246556 291.759369 
L 1427.54982 292.289574 
L 1428.858177 292.322367 
L 1430.171452 293.606871 
L 1431.489391 291.995895 
L 1432.811669 295.335304 
L 1434.138254 290.894828 
L 1435.468768 290.473653 
L 1436.803014 288.747682 
L 1438.140739 288.9187 
L 1439.481697 288.103401 
L 1440.825636 287.036508 
L 1442.172373 288.430454 
L 1443.521571 288.932038 
L 1444.873047 288.083246 
L 1446.226547 284.673263 
L 1448.938577 281.320882 
L 1450.296549 284.237369 
L 1451.655507 283.54094 
L 1453.015269 284.538702 
L 1454.375466 284.213966 
L 1455.735931 280.87725 
L 1457.096355 281.184555 
L 1458.456478 280.498588 
L 1459.816076 279.592993 
L 1461.174874 277.144999 
L 1462.532625 278.111025 
L 1463.889061 280.025739 
L 1465.243957 279.875117 
L 1466.597074 275.332722 
L 1467.948126 273.652861 
L 1469.296845 275.589739 
L 1470.643057 271.757859 
L 1471.98644 273.193152 
L 1473.32679 275.142823 
L 1474.663886 270.662637 
L 1475.997411 271.742811 
L 1477.327251 268.733733 
L 1478.653065 269.878029 
L 1479.974668 268.105896 
L 1481.291871 261.209961 
L 1482.60434 266.450076 
L 1483.911937 268.101661 
L 1485.214441 263.68978 
L 1486.511619 262.754309 
L 1487.803256 259.666093 
L 1489.089149 263.445839 
L 1490.369122 259.729232 
L 1491.642918 260.259547 
L 1492.910422 259.118628 
L 1494.171353 259.679708 
L 1495.425618 259.769439 
L 1496.672943 253.320905 
L 1497.913231 251.302688 
L 1499.146255 253.110291 
L 1500.37183 251.128621 
L 1501.589833 252.050665 
L 1502.800093 256.913012 
L 1504.002487 249.763902 
L 1505.196857 244.16666 
L 1506.382995 246.887011 
L 1507.560835 246.618235 
L 1508.730162 245.173761 
L 1509.890932 241.201271 
L 1511.042973 248.798044 
L 1512.186208 243.284499 
L 1514.445702 244.147765 
L 1515.56182 238.257079 
L 1516.668636 234.677039 
L 1517.766081 236.633037 
L 1518.854131 236.523448 
L 1519.932698 235.743212 
L 1521.001629 236.358877 
L 1522.060916 230.544997 
L 1523.110518 226.650077 
L 1524.150309 224.213006 
L 1525.180224 228.206148 
L 1526.200298 230.506704 
L 1527.210448 220.03168 
L 1529.200793 216.628521 
L 1530.180901 221.171804 
L 1531.150995 221.294684 
L 1532.110969 226.411115 
L 1533.060892 226.5689 
L 1534.000757 205.544473 
L 1534.930473 215.733958 
L 1535.850093 206.021363 
L 1536.759637 201.935436 
L 1537.659074 206.587232 
L 1538.548446 212.99171 
L 1539.42781 198.330614 
L 1540.297087 213.661982 
L 1541.156406 207.981816 
L 1542.005766 210.448208 
L 1542.845187 195.18755 
L 1543.674689 204.977339 
L 1544.494408 193.43333 
L 1545.304267 201.222846 
L 1546.894883 187.237071 
L 1547.675728 190.567544 
L 1548.446967 185.754815 
L 1549.208719 201.812472 
L 1549.961021 195.158009 
L 1550.704011 190.630986 
L 1551.4377 191.376255 
L 1552.162194 180.740884 
L 1552.877524 175.319445 
L 1553.583846 179.380641 
L 1554.28114 189.129825 
L 1554.969652 187.16772 
L 1555.649391 168.978356 
L 1556.320426 162.723203 
L 1556.982806 187.077351 
L 1557.636785 182.027301 
L 1558.282355 162.288465 
L 1558.919652 159.557626 
L 1559.548696 175.506897 
L 1560.169732 165.907624 
L 1560.782769 174.416004 
L 1561.387965 147.706569 
L 1562.575176 159.256005 
L 1563.157387 179.414438 
L 1563.732256 148.975962 
L 1564.299724 167.528434 
L 1565.413362 153.652823 
L 1565.959639 155.248976 
L 1566.499114 147.484944 
L 1567.031845 149.18987 
L 1567.557959 145.975563 
L 1568.077585 152.650501 
L 1568.590889 139.129131 
L 1569.09789 141.028327 
L 1570.093631 155.026661 
L 1570.582606 129.736488 
L 1571.065788 143.415131 
L 1571.543296 145.435168 
L 1572.015265 136.114762 
L 1572.481804 159.68656 
L 1572.94305 134.410421 
L 1573.399101 123.699405 
L 1573.850055 155.709647 
L 1574.296029 141.142057 
L 1574.737162 154.675306 
L 1575.17358 145.676389 
L 1575.605351 121.868096 
L 1576.032595 138.073395 
L 1576.455466 133.946885 
L 1576.874015 149.042824 
L 1577.288389 145.358225 
L 1577.698685 164.799477 
L 1578.10505 122.761184 
L 1578.507475 139.923673 
L 1579.301219 145.11303 
L 1579.692657 165.664415 
L 1580.080712 129.017697 
L 1580.465386 159.08405 
L 1580.846737 172.799439 
L 1581.22502 144.851669 
L 1581.600127 154.342795 
L 1581.972343 135.679752 
L 1582.341637 159.667361 
L 1583.071915 151.757016 
L 1583.433074 167.612508 
L 1583.791695 191.683449 
L 1584.501751 156.075851 
L 1584.853265 158.954175 
L 1585.202554 180.698471 
L 1585.549785 157.588222 
L 1585.894889 185.863422 
L 1586.238061 163.464979 
L 1586.579313 159.094089 
L 1586.918732 182.211637 
L 1587.256386 165.099362 
L 1587.592325 181.532624 
L 1587.926666 171.038861 
L 1588.25938 192.901656 
L 1588.590644 183.560189 
L 1588.920476 165.145603 
L 1589.248848 195.148075 
L 1589.575956 185.569099 
L 1589.901838 158.02342 
L 1590.226427 208.435659 
L 1590.549907 172.906519 
L 1590.872202 208.302615 
L 1591.193527 215.949915 
L 1591.513802 218.414467 
L 1591.833147 185.279211 
L 1592.15157 213.288647 
L 1592.469101 215.861512 
L 1592.785819 194.28389 
L 1593.101762 203.868627 
L 1593.41694 223.43918 
L 1593.731443 220.833458 
L 1594.04522 233.018908 
L 1594.358458 225.896328 
L 1594.671 233.202773 
L 1594.983071 220.269963 
L 1595.294525 233.2956 
L 1595.605489 230.806568 
L 1595.916041 209.668798 
L 1596.535715 238.157832 
L 1596.844963 230.33317 
L 1597.15382 255.357631 
L 1597.462362 240.537233 
L 1597.770562 259.522069 
L 1598.078429 261.56555 
L 1598.386079 247.648498 
L 1598.693426 254.31322 
L 1599.00047 270.728129 
L 1599.307375 262.539471 
L 1599.614066 215.304657 
L 1599.920472 270.070051 
L 1600.226701 268.620829 
L 1600.532794 263.185241 
L 1600.8387 265.283716 
L 1601.14441 277.618695 
L 1601.450032 276.337078 
L 1601.755487 267.574075 
L 1602.060834 265.567466 
L 1602.366025 278.702916 
L 1602.671068 286.449228 
L 1602.976083 282.363045 
L 1603.28092 292.325232 
L 1603.58568 298.371351 
L 1604.194904 283.189706 
L 1604.499369 288.130631 
L 1604.803737 295.275218 
L 1605.107986 294.28282 
L 1605.716172 302.134241 
L 1606.020157 301.353816 
L 1606.324073 295.262445 
L 1606.627793 304.23695 
L 1606.931445 298.448335 
L 1607.235018 299.998466 
L 1607.841675 307.642018 
L 1608.144856 314.600141 
L 1608.447929 305.919185 
L 1608.750817 307.330698 
L 1609.053547 310.893662 
L 1609.356189 299.452921 
L 1609.658586 317.156903 
L 1609.960875 322.803013 
L 1610.262939 323.826686 
L 1610.564895 320.569414 
L 1610.866645 309.800892 
L 1611.16815 322.731838 
L 1611.469498 314.826755 
L 1611.770562 324.806666 
L 1612.07146 319.314025 
L 1612.372073 323.885747 
L 1612.67248 319.710452 
L 1612.972564 331.079562 
L 1613.272413 325.430961 
L 1613.572006 329.27158 
L 1613.871277 324.190918 
L 1614.468915 333.117872 
L 1614.767254 334.98731 
L 1615.065241 335.765382 
L 1615.362874 338.302407 
L 1615.660213 326.906636 
L 1615.957111 337.994906 
L 1616.253637 334.625664 
L 1617.140823 336.993269 
L 1617.435682 339.701435 
L 1617.730149 338.479375 
L 1618.024127 339.195678 
L 1618.317614 344.550565 
L 1618.610631 345.095992 
L 1618.903177 341.241326 
L 1619.195252 334.794878 
L 1619.48672 346.652586 
L 1619.777738 339.131263 
L 1620.068147 345.234309 
L 1620.358047 344.324797 
L 1620.647339 347.506626 
L 1620.936101 348.995792 
L 1621.224256 344.430468 
L 1621.511803 349.850691 
L 1621.798763 348.274767 
L 1622.085075 347.532945 
L 1622.370779 344.988461 
L 1622.655778 345.556686 
L 1622.940149 350.047678 
L 1623.223854 349.402072 
L 1623.506854 349.83817 
L 1623.789167 351.255567 
L 1624.070774 351.636304 
L 1624.351715 351.075813 
L 1624.631852 351.465668 
L 1624.911342 346.179619 
L 1625.189989 352.212847 
L 1625.745068 354.38345 
L 1626.021441 355.239641 
L 1626.297011 355.501974 
L 1626.571835 353.902237 
L 1626.845816 354.211372 
L 1627.118994 352.778825 
L 1627.391329 354.802686 
L 1627.66286 353.467452 
L 1628.47218 354.425285 
L 1628.740221 356.675297 
L 1629.0074 355.758255 
L 1629.273697 355.298838 
L 1630.067079 356.094376 
L 1630.329749 356.964276 
L 1630.591458 355.852078 
L 1630.852188 357.877277 
L 1631.111996 357.601249 
L 1631.370843 358.951895 
L 1631.628769 357.474744 
L 1631.885637 358.947865 
L 1632.396627 356.794376 
L 1632.650613 359.075944 
L 1632.903618 357.251292 
L 1633.155624 359.024744 
L 1633.406532 359.510627 
L 1633.656538 359.325267 
L 1633.905505 359.468068 
L 1634.153414 359.903458 
L 1634.400322 360.025719 
L 1634.646192 360.376979 
L 1634.891023 359.285765 
L 1635.134815 360.113064 
L 1635.377587 359.574663 
L 1635.619242 360.057996 
L 1635.859917 359.427703 
L 1636.099435 360.772446 
L 1636.575413 359.843876 
L 1636.811755 360.328717 
L 1637.281245 360.546209 
L 1637.514352 360.901725 
L 1637.746401 360.748481 
L 1637.977314 361.077242 
L 1638.207187 360.936478 
L 1638.435884 361.562695 
L 1638.890141 361.193661 
L 1639.115623 360.32251 
L 1639.563156 361.861315 
L 1639.785344 361.284599 
L 1640.006356 361.724134 
L 1640.226271 361.628795 
L 1640.662748 361.753097 
L 1640.87931 362.059527 
L 1641.094774 361.704856 
L 1641.522311 362.094592 
L 1641.734424 361.449868 
L 1641.945379 361.758266 
L 1642.155178 362.311214 
L 1642.363977 361.355397 
L 1642.571522 362.382698 
L 1642.983356 362.509173 
L 1643.187608 362.479734 
L 1643.3908 361.711543 
L 1643.592738 362.299543 
L 1643.793656 362.058261 
L 1644.192043 362.493554 
L 1644.38955 362.64167 
L 1644.58594 362.551741 
L 1644.781193 362.727944 
L 1645.168425 362.729357 
L 1645.360424 362.394508 
L 1645.740932 362.786105 
L 1646.117069 362.524743 
L 1646.303402 362.709122 
L 1646.488716 362.666632 
L 1646.85605 362.711636 
L 1648.454576 362.909651 
L 1648.626814 362.669522 
L 1648.797915 362.933888 
L 1649.802292 362.994712 
L 1649.966002 362.832082 
L 1650.29015 362.997225 
L 1650.768696 362.960639 
L 1651.082512 363.067024 
L 1652.29708 363.10289 
L 1652.444441 362.868187 
L 1652.736026 363.082447 
L 1652.880349 363.108963 
L 1653.02377 363.008488 
L 1653.307455 363.118453 
L 1654.27037 363.112531 
M 1654.537 363.118821 
L 1655.31464 363.12418 
L 1660.176635 363.172685 
M 1660.356695 363.172347 
L 1661.049862 363.173211 
M 1661.216494 363.17337 
L 1661.621899 363.173518 
M 1661.934872 363.17254 
L 1662.087565 363.174117 
M 1662.237965 363.17378 
L 1662.386051 363.173875 
M 1662.531707 363.173356 
L 1662.674991 363.173856 
M 1663.225972 363.174405 
L 1663.616518 363.174144 
M 1664.108355 363.174481 
L 1664.226389 363.174456 
M 1664.624638 363.174496 
L 1664.679666 363.174501 
M 1665.355269 363.174542 
L 1665.404278 363.174517 
L 1665.404278 363.174517 
" style="fill:none;stroke:#00bfbf;stroke-linecap:square;stroke-width:3;"/>
   </g>
   <g id="patch_13">
    <path d="M 1258.094118 378 
L 1258.094118 51.84 
" style="fill:none;stroke:#000000;stroke-linecap:square;stroke-linejoin:miter;stroke-width:0.8;"/>
   </g>
   <g id="patch_14">
    <path d="M 1684.8 378 
L 1684.8 51.84 
" style="fill:none;stroke:#000000;stroke-linecap:square;stroke-linejoin:miter;stroke-width:0.8;"/>
   </g>
   <g id="patch_15">
    <path d="M 1258.094118 378 
L 1684.8 378 
" style="fill:none;stroke:#000000;stroke-linecap:square;stroke-linejoin:miter;stroke-width:0.8;"/>
   </g>
   <g id="patch_16">
    <path d="M 1258.094118 51.84 
L 1684.8 51.84 
" style="fill:none;stroke:#000000;stroke-linecap:square;stroke-linejoin:miter;stroke-width:0.8;"/>
   </g>
   <g id="text_27">
    <!-- $\varepsilon_{2}=0.00001,$ $area_{2}=inf$ -->
    <g transform="translate(1328.317059 45.84)scale(0.26 -0.26)">
     <defs>
      <path d="M 7.8125 7.171875 
Q 7.8125 9.03125 8.59375 11.078125 
L 16.703125 32.625 
Q 18.015625 36.28125 18.015625 38.625 
Q 18.015625 41.609375 15.828125 41.609375 
Q 11.859375 41.609375 9.296875 37.53125 
Q 6.734375 33.453125 5.515625 28.421875 
Q 5.328125 27.78125 4.6875 27.78125 
L 3.515625 27.78125 
Q 2.6875 27.78125 2.6875 28.71875 
L 2.6875 29 
Q 4.296875 34.96875 7.609375 39.578125 
Q 10.9375 44.1875 16.015625 44.1875 
Q 19.578125 44.1875 22.046875 41.84375 
Q 24.515625 39.5 24.515625 35.890625 
Q 24.515625 34.03125 23.6875 31.984375 
L 15.578125 10.5 
Q 14.203125 7.171875 14.203125 4.5 
Q 14.203125 1.515625 16.5 1.515625 
Q 20.40625 1.515625 23.015625 5.6875 
Q 25.640625 9.859375 26.703125 14.703125 
Q 26.90625 15.28125 27.484375 15.28125 
L 28.71875 15.28125 
Q 29.109375 15.28125 29.34375 15.015625 
Q 29.59375 14.75 29.59375 14.40625 
Q 29.59375 14.3125 29.5 14.109375 
Q 28.125 8.453125 24.734375 3.65625 
Q 21.34375 -1.125 16.3125 -1.125 
Q 12.796875 -1.125 10.296875 1.296875 
Q 7.8125 3.71875 7.8125 7.171875 
z
M 19.09375 60.59375 
Q 19.09375 62.703125 20.84375 64.40625 
Q 22.609375 66.109375 24.703125 66.109375 
Q 26.421875 66.109375 27.515625 65.0625 
Q 28.609375 64.015625 28.609375 62.40625 
Q 28.609375 60.15625 26.828125 58.46875 
Q 25.046875 56.78125 22.90625 56.78125 
Q 21.296875 56.78125 20.1875 57.875 
Q 19.09375 58.984375 19.09375 60.59375 
z
" id="Cmmi10-105"/>
      <path d="M 7.71875 1.703125 
Q 7.71875 2.296875 7.8125 2.59375 
L 15.28125 32.421875 
Q 16.015625 35.203125 16.015625 37.3125 
Q 16.015625 41.609375 13.09375 41.609375 
Q 9.96875 41.609375 8.453125 37.859375 
Q 6.9375 34.125 5.515625 28.421875 
Q 5.515625 28.125 5.21875 27.953125 
Q 4.9375 27.78125 4.6875 27.78125 
L 3.515625 27.78125 
Q 3.171875 27.78125 2.921875 28.140625 
Q 2.6875 28.515625 2.6875 28.8125 
Q 3.765625 33.15625 4.765625 36.171875 
Q 5.765625 39.203125 7.890625 41.6875 
Q 10.015625 44.1875 13.1875 44.1875 
Q 16.9375 44.1875 19.8125 41.8125 
Q 22.703125 39.453125 22.703125 35.796875 
Q 25.6875 39.703125 29.6875 41.9375 
Q 33.6875 44.1875 38.1875 44.1875 
Q 41.75 44.1875 44.328125 42.96875 
Q 46.921875 41.75 48.359375 39.28125 
Q 49.8125 36.8125 49.8125 33.40625 
Q 49.8125 29.296875 47.96875 23.484375 
Q 46.140625 17.671875 43.40625 10.5 
Q 42 7.234375 42 4.5 
Q 42 1.515625 44.28125 1.515625 
Q 48.1875 1.515625 50.796875 5.703125 
Q 53.421875 9.90625 54.5 14.703125 
Q 54.6875 15.28125 55.328125 15.28125 
L 56.5 15.28125 
Q 56.890625 15.28125 57.15625 15.03125 
Q 57.421875 14.796875 57.421875 14.40625 
Q 57.421875 14.3125 57.328125 14.109375 
Q 55.953125 8.453125 52.5625 3.65625 
Q 49.171875 -1.125 44.09375 -1.125 
Q 40.578125 -1.125 38.078125 1.296875 
Q 35.59375 3.71875 35.59375 7.171875 
Q 35.59375 9.03125 36.375 11.078125 
Q 37.640625 14.359375 39.28125 18.890625 
Q 40.921875 23.4375 41.96875 27.578125 
Q 43.015625 31.734375 43.015625 34.90625 
Q 43.015625 37.703125 41.859375 39.65625 
Q 40.71875 41.609375 37.984375 41.609375 
Q 34.328125 41.609375 31.25 39.984375 
Q 28.171875 38.375 25.875 35.71875 
Q 23.578125 33.0625 21.6875 29.390625 
L 14.890625 2.203125 
Q 14.546875 0.828125 13.34375 -0.140625 
Q 12.15625 -1.125 10.6875 -1.125 
Q 9.46875 -1.125 8.59375 -0.34375 
Q 7.71875 0.4375 7.71875 1.703125 
z
" id="Cmmi10-110"/>
      <path d="M 9.71875 -16.5 
Q 11.578125 -17.921875 14.203125 -17.921875 
Q 17.78125 -17.921875 20.015625 -10.015625 
Q 20.953125 -6.203125 25.09375 15.09375 
L 29.6875 39.59375 
L 21.09375 39.59375 
Q 20.125 39.59375 20.125 40.921875 
Q 20.515625 43.109375 21.390625 43.109375 
L 30.328125 43.109375 
L 31.5 49.609375 
Q 32.078125 52.640625 32.5625 54.8125 
Q 33.0625 56.984375 33.625 58.828125 
Q 34.1875 60.6875 35.296875 62.984375 
Q 37.015625 66.265625 39.921875 68.390625 
Q 42.828125 70.515625 46.1875 70.515625 
Q 48.390625 70.515625 50.46875 69.703125 
Q 52.546875 68.890625 53.859375 67.28125 
Q 55.171875 65.671875 55.171875 63.484375 
Q 55.171875 60.9375 53.484375 59.046875 
Q 51.8125 57.171875 49.421875 57.171875 
Q 47.796875 57.171875 46.65625 58.171875 
Q 45.515625 59.1875 45.515625 60.796875 
Q 45.515625 62.984375 47 64.625 
Q 48.484375 66.265625 50.6875 66.5 
Q 48.828125 67.921875 46.09375 67.921875 
Q 44.578125 67.921875 43.234375 66.5 
Q 41.890625 65.09375 41.5 63.484375 
Q 40.875 60.9375 38.71875 49.703125 
L 37.5 43.109375 
L 47.796875 43.109375 
Q 48.78125 43.109375 48.78125 41.796875 
Q 48.734375 41.546875 48.578125 40.9375 
Q 48.4375 40.328125 48.171875 39.953125 
Q 47.90625 39.59375 47.515625 39.59375 
L 36.8125 39.59375 
L 32.171875 15.1875 
Q 31.296875 9.859375 30.140625 4.359375 
Q 29 -1.125 26.921875 -6.90625 
Q 24.859375 -12.703125 21.625 -16.609375 
Q 18.40625 -20.515625 14.015625 -20.515625 
Q 10.640625 -20.515625 7.984375 -18.578125 
Q 5.328125 -16.65625 5.328125 -13.484375 
Q 5.328125 -10.9375 6.953125 -9.046875 
Q 8.59375 -7.171875 11.078125 -7.171875 
Q 12.75 -7.171875 13.859375 -8.171875 
Q 14.984375 -9.1875 14.984375 -10.796875 
Q 14.984375 -12.9375 13.390625 -14.71875 
Q 11.8125 -16.5 9.71875 -16.5 
z
" id="Cmmi10-102"/>
     </defs>
     <use transform="translate(0 0.484375)" xlink:href="#Cmmi10-34"/>
     <use transform="translate(46.582031 -16.521875)scale(0.7)" xlink:href="#Cmr10-50"/>
     <use transform="translate(105.517969 0.484375)" xlink:href="#Cmr10-61"/>
     <use transform="translate(200.762109 0.484375)" xlink:href="#Cmr10-48"/>
     <use transform="translate(250.762109 0.484375)" xlink:href="#Cmmi10-58"/>
     <use transform="translate(278.447656 0.484375)" xlink:href="#Cmr10-48"/>
     <use transform="translate(328.447656 0.484375)" xlink:href="#Cmr10-48"/>
     <use transform="translate(378.447656 0.484375)" xlink:href="#Cmr10-48"/>
     <use transform="translate(428.447656 0.484375)" xlink:href="#Cmr10-48"/>
     <use transform="translate(478.447656 0.484375)" xlink:href="#Cmr10-49"/>
     <use transform="translate(528.447656 0.484375)" xlink:href="#Cmmi10-59"/>
     <use transform="translate(573.691797 0.484375)" xlink:href="#DejaVuSans-32"/>
     <use transform="translate(605.478906 0.484375)" xlink:href="#Cmmi10-97"/>
     <use transform="translate(658.262109 0.484375)" xlink:href="#Cmmi10-114"/>
     <use transform="translate(703.379297 0.484375)" xlink:href="#Cmmi10-101"/>
     <use transform="translate(749.863672 0.484375)" xlink:href="#Cmmi10-97"/>
     <use transform="translate(802.646875 -16.521875)scale(0.7)" xlink:href="#Cmr10-50"/>
     <use transform="translate(861.582813 0.484375)" xlink:href="#Cmr10-61"/>
     <use transform="translate(956.826953 0.484375)" xlink:href="#Cmmi10-105"/>
     <use transform="translate(991.250781 0.484375)" xlink:href="#Cmmi10-110"/>
     <use transform="translate(1051.260547 0.484375)" xlink:href="#Cmmi10-102"/>
    </g>
   </g>
  </g>
 </g>
 <defs>
  <clipPath id="pf8989998d9">
   <rect height="326.16" width="426.705882" x="234" y="51.84"/>
  </clipPath>
  <clipPath id="pdea0850b34">
   <rect height="326.16" width="426.705882" x="746.047059" y="51.84"/>
  </clipPath>
  <clipPath id="pa6b06ef744">
   <rect height="326.16" width="426.705882" x="1258.094118" y="51.84"/>
  </clipPath>
 </defs>
</svg>
